<svg width="316" height="62" fill="none" xmlns="http://www.w3.org/2000/svg"><g filter="url(#a)"><path d="M6.5 45.5V39H0V0h13v13h26v6.5h6.5V39H39v6.5H6.5ZM13 39h19.5V19.5H13V39Z" fill="url(#b)"/><path d="M71.5 6.5V0h13v6.5h-13Zm-13 39V39h13V19.5H65V13h19.5v26h13v6.5h-39Z" fill="url(#c)"/><path d="M104 45.5V13h39v6.5h6.5v26h-13v-26H117v26h-13Z" fill="url(#d)"/><path d="M156 52V13h39v6.5h6.5v13H195V39h-26v13h-13Zm13-19.5h19.5v-13H169v13Z" fill="url(#e)"/><path d="M214.5 45.5V39H208v-6.5h6.5V26h26v-6.5h-26V13H247v6.5h6.5v26h-39ZM221 39h19.5v-6.5H221V39Z" fill="url(#f)"/><path d="M260 45.5V0h13v26h13v-6.5h6.5V13h13v6.5H299V26h-6.5v6.5h6.5V39h6.5v6.5h-13V39H286v-6.5h-13v13h-13Z" fill="url(#g)"/></g><defs><linearGradient id="b" x1="156" y1="13" x2="156" y2="58.5" gradientUnits="userSpaceOnUse"><stop stop-color="#F787FF"/><stop offset="1" stop-color="#4ADCFC"/></linearGradient><linearGradient id="c" x1="156" y1="13" x2="156" y2="58.5" gradientUnits="userSpaceOnUse"><stop stop-color="#F787FF"/><stop offset="1" stop-color="#4ADCFC"/></linearGradient><linearGradient id="d" x1="156" y1="13" x2="156" y2="58.5" gradientUnits="userSpaceOnUse"><stop stop-color="#F787FF"/><stop offset="1" stop-color="#4ADCFC"/></linearGradient><linearGradient id="e" x1="156" y1="13" x2="156" y2="58.5" gradientUnits="userSpaceOnUse"><stop stop-color="#F787FF"/><stop offset="1" stop-color="#4ADCFC"/></linearGradient><linearGradient id="f" x1="156" y1="13" x2="156" y2="58.5" gradientUnits="userSpaceOnUse"><stop stop-color="#F787FF"/><stop offset="1" stop-color="#4ADCFC"/></linearGradient><linearGradient id="g" x1="156" y1="13" x2="156" y2="58.5" gradientUnits="userSpaceOnUse"><stop stop-color="#F787FF"/><stop offset="1" stop-color="#4ADCFC"/></linearGradient><filter id="a" x="0" y="0" width="315.5" height="62" filterUnits="userSpaceOnUse" color-interpolation-filters="sRGB"><feFlood flood-opacity="0" result="BackgroundImageFix"/><feColorMatrix in="SourceAlpha" values="0 0 0 0 0 0 0 0 0 0 0 0 0 0 0 0 0 0 127 0" result="hardAlpha"/><feOffset dx="10" dy="10"/><feComposite in2="hardAlpha" operator="out"/><feColorMatrix values="0 0 0 0 0 0 0 0 0 0 0 0 0 0 0 0 0 0 0.55 0"/><feBlend in2="BackgroundImageFix" result="effect1_dropShadow_17_2828"/><feBlend in="SourceGraphic" in2="effect1_dropShadow_17_2828" result="shape"/></filter></defs></svg>