<svg width="56" height="102" fill="none" xmlns="http://www.w3.org/2000/svg"><g filter="url(#a)"><path fill-rule="evenodd" clip-rule="evenodd" d="M28.205 0H25v44.23h3.205V0Zm-6.41 3.205H25v37.82h-3.205v-3.204H18.59V6.41h3.205V3.204Zm-6.41 6.09h3.205v25.64h-3.205V31.41H0V12.5h15.385V9.295ZM41.346 6.41h5.769v8.975h-2.884v-6.09h-2.885V6.41Zm2.885 28.526h-2.885v2.885h5.77v-9.295H44.23v6.41ZM38.14 12.5h-2.885v6.41h2.885v6.41h-2.885v6.41h2.885v-3.204h2.885V15.385H38.14V12.5ZM50 12.5h-2.885v18.91H50V12.5Z" fill="url(#b)"/></g><g filter="url(#c)"><path fill-rule="evenodd" clip-rule="evenodd" d="M28.205 51H25v44.23h3.205V51Zm-6.41 3.205H25v37.82h-3.205v-3.204H18.59V57.41h3.205v-3.206Zm-6.41 6.09h3.205v25.64h-3.205V82.41H0V63.5h15.385v-3.205Z" fill="#fff"/></g><defs><filter id="a" x="0" y="0" width="56" height="50.231" filterUnits="userSpaceOnUse" color-interpolation-filters="sRGB"><feFlood flood-opacity="0" result="BackgroundImageFix"/><feColorMatrix in="SourceAlpha" values="0 0 0 0 0 0 0 0 0 0 0 0 0 0 0 0 0 0 127 0" result="hardAlpha"/><feOffset dx="6" dy="6"/><feComposite in2="hardAlpha" operator="out"/><feColorMatrix values="0 0 0 0 0 0 0 0 0 0 0 0 0 0 0 0 0 0 0.55 0"/><feBlend in2="BackgroundImageFix" result="effect1_dropShadow_30_39"/><feBlend in="SourceGraphic" in2="effect1_dropShadow_30_39" result="shape"/></filter><filter id="c" x="0" y="51" width="34.205" height="50.231" filterUnits="userSpaceOnUse" color-interpolation-filters="sRGB"><feFlood flood-opacity="0" result="BackgroundImageFix"/><feColorMatrix in="SourceAlpha" values="0 0 0 0 0 0 0 0 0 0 0 0 0 0 0 0 0 0 127 0" result="hardAlpha"/><feOffset dx="6" dy="6"/><feComposite in2="hardAlpha" operator="out"/><feColorMatrix values="0 0 0 0 0 0 0 0 0 0 0 0 0 0 0 0 0 0 0.55 0"/><feBlend in2="BackgroundImageFix" result="effect1_dropShadow_30_39"/><feBlend in="SourceGraphic" in2="effect1_dropShadow_30_39" result="shape"/></filter><linearGradient id="b" x1="25.532" y1="11.058" x2="25.532" y2="49.76" gradientUnits="userSpaceOnUse"><stop stop-color="#F787FF"/><stop offset="1" stop-color="#4ADCFC"/></linearGradient></defs></svg>